<svg fill="#FFFFFF" xmlns="http://www.w3.org/2000/svg" xmlns:xlink="http://www.w3.org/1999/xlink" version="1.1" x="0px" y="0px" viewBox="0 0 100 100" enable-background="new 0 0 100 100" xml:space="preserve"><path d="M71.886,63.194c-0.952-0.483-2.513-0.424-3.134,0.571c-1.286,2.058-0.443,0.709-0.002,0.002  c-2.195,3.512-5.624,6.21-9.07,8.417c-0.044-0.806-0.914-2.268-1.936-1.929c-0.955,0.316-0.584,1.232-0.498,1.897  c0.19,1.47,0.298,1.368-1.332,2.22c-0.113-1.606-0.527-3.491-2.234-4.177c-1.874-0.754-0.167,3.582,0.047,4.342  c0.399,1.304-0.933,1.353-2.023,1.802c-0.223-0.469-0.4-0.943-0.633-1.408c-0.296-0.588-0.777-1.231-1.234-1.699  c-1.291-1.324-1.417,0.892-1.236,1.656c0.191,0.815,0.555,1.537,0.965,2.265c-0.565,0.212-1.151,0.4-1.723,0.596  c-0.172-0.931-0.999-2.812-2.242-2.462c-1.155,0.328-0.189,2.491,0.061,3.189c-0.818,0.26-1.645,0.493-2.477,0.703  c0.135-0.717-0.084-4.429-1.752-3.536c-1.078,0.577-0.556,3.163-0.141,3.946c-0.698,0.126-1.4,0.219-2.107,0.278  c0.318-1.077,0.175-2.794-1.104-3.19c-1.413-0.433-1.173,2.626-0.93,3.259c-0.72-0.011-1.438-0.061-2.152-0.149  c1.794-1.543-2.428-3.566-1.943-0.179c-3.91-0.123-12.927,2.697-14.58-2.431c-0.852-2.642-0.475-5.634-0.359-8.355  c0.158-3.716-0.488-7.362-0.229-11.092c0.469-6.737,2.426-13.473,6.557-18.966c2.037-2.707,4.723-4.987,7.533-6.856  c0.793-0.527,2.727-1.295,1.994-2.578c-0.852-1.49-2.605-0.973-3.742-0.26c-5.941,3.732-10.43,9.367-13.309,15.721  c-1.458,3.219-2.701,6.709-3.124,10.23c-0.536,4.46,0.162,8.931,0.508,13.376c0.477,6.134-1.915,12.827,5.994,14.857  c3.764,0.966,6.813-0.915,10.456-0.951c1.777-0.018,3.508,0.489,5.254,0.743c2.103,0.306,4.276,0.06,6.349-0.349  c7.521-1.484,13.996-4.918,20.288-9.141c3.104-2.084,6.367-4.032,8.71-7.017C72.071,65.626,73.496,64.011,71.886,63.194z"/><path d="M23.058,71.823c1.221,0.857,2.345,1.585,3.347,2.698c0.518,0.71,0.579,1.425,0.953,2.184  c0.844,1.707,1.392-0.991,1.408-1.696c0.013-1.954-2.029-3.938-3.795-4.534c-0.688-0.248-1.401-0.506-2.129-0.606  C20.849,69.594,22.396,71.359,23.058,71.823z"/><path d="M83.407,35.57c0.014,0.062,0.028,0.132,0.046,0.212c-0.483-2.241-2.067-4.236-3.746-5.726  c-1.357-1.205-1.053-4.313,0.25-5.651c2.714-2.787,2.06-9.25-3.104-7.7c-1.831,0.549-3.098,2.407-5.028,3.041  c-0.825,0.271-1.937,0.306-2.673,0.77c-0.818,0.515-2.843-0.987-3.816-1.407c-4.893-2.106-9.454-3.583-14.607-1.395  c-3.739,1.588-7.617,3.651-11.15,5.666c-1.599,0.911-3.231,1.983-4.329,3.493c-1.597,2.199,0.802,4.065,2.954,4.138  c2.311,0.079,4.428-0.688,6.755-0.194c2.772,0.588,5.319,2.019,8.147,2.377c2.551,0.323,5.117-0.143,7.637-0.51  c2.809-0.408,5.73-0.281,8.498-0.932c-2.064,3.052-2.826,6.841-3.273,10.438c-0.404,3.247-1.185,7.091,0.166,10.189  c1.375,3.155,3.896,5.774,5.875,8.555c1.051,1.476,2.211,2.899,2.969,4.559c0.835,1.827,0.912,3.757,1.326,5.688  c0.277,1.291,0.93,3.411,2.577,3.367c1.572-0.042,2.66-1.729,3.001-3.078c0.845-3.342,0.801-6.738,1.828-10.106  c1.197-3.92,2.775-7.962,2.688-12.125c-0.1-4.636-1.977-8.978-2.943-13.457C83.435,35.697,83.42,35.629,83.407,35.57z M75.666,22.16  c0.44-0.335,0.198-0.151,0.007-0.006c0.232-0.184,2.418-2.337,2.699-1.297c0.121,0.446-1.274,1.717-1.474,2.064  c-0.882,1.538-1.19,3.102-1.041,4.855c-0.446-0.129-1.485,0.097-1.549-0.221c-0.064-1.47-0.806-2.785-1.779-3.85  c1.155-0.334,2.166-0.812,3.129-1.541C75.517,22.273,75.413,22.352,75.666,22.16z M61.082,28.983  c-3.684,0.272-7.411,1.226-11.054,0.133c-1.821-0.547-3.534-1.414-5.384-1.875c-1.576-0.394-3.413,0.126-4.998,0.245  c2.252-1.25,4.671-2.096,6.896-3.414c2.371-1.405,4.739-2.852,7.39-3.674c2.395-0.742,5.269,0.481,7.559,1.188  c3.032,0.935,6.383,1.956,8.993,3.824c1.75,1.253,0.775,1.904-1.037,2.625C66.797,29.089,63.864,28.777,61.082,28.983z   M82.807,53.068c-0.54,4.569-2.744,8.714-3.756,13.17c-1.497-7-8.967-10.992-9.725-18.402c-0.32-3.121,0.628-6.398,1.018-9.497  c0.382-3.036,1.152-6.362,4.182-7.794c5.227,1.909,6.837,9.325,7.675,14.121C82.677,47.395,83.134,50.301,82.807,53.068z   M83.805,37.412c-0.006-0.025-0.013-0.057-0.02-0.092C83.792,37.354,83.799,37.385,83.805,37.412z"/><path d="M76.186,34.89c-0.284-1.146-1.421-4.211-1.506-1.139c-0.076,2.718,0.278,5.32,0.904,7.954  c0.887,3.731,1.625,7.162,1.502,11.023c-0.105,3.337,1.517,0.318,1.779-1.216c0.28-1.641,0.558-3.383,0.242-5.041  C78.869,45.157,76.529,34.89,76.186,34.89z"/><path d="M65.254,25.606c-0.247-0.04-0.303-0.052-0.284-0.053c-3.208-0.552-6.322-1.754-9.597-1.831  c-2.459-0.094-5.156,0.604-7.471,1.371c-1.146,0.38-4.046,1.847-0.988,1.616c2.75-0.208,5.6-0.837,8.361-0.687  c1.678,0.062,3.271,0.581,4.91,0.865c1.848,0.319,3.61,0.555,5.492,0.331C68.58,26.872,67.604,25.742,65.254,25.606z"/><path d="M56.811,63.13c1.441-0.847-0.162-2.719-1.521-1.916C54.209,61.85,55.605,63.844,56.811,63.13z"/><path d="M44.289,42.137c-1.734,0.761,0.144,2.328,1.578,1.714c-0.174,0.075-0.342,0.148,0.006-0.002  c0.344-0.15,0.178-0.078,0.006-0.003C47.307,43.217,45.538,41.596,44.289,42.137z"/><path d="M38.811,53.097c-1.737,0.759,0.143,2.333,1.579,1.713c-0.174,0.076-0.345,0.15,0.003-0.001  c0.346-0.151,0.176-0.077,0.003-0.001C41.828,54.179,40.061,52.554,38.811,53.097z"/><path d="M51.1,51.517c-1.79,0.557-0.944,3.006,0.895,2.433C53.718,53.414,52.756,51.006,51.1,51.517z"/><path d="M34.979,64.121c-1.126-1.12-2.642,0.482-1.424,1.721c-0.125-0.125-0.242-0.241,0.008,0.009  c0.251,0.25,0.134,0.132,0.009,0.007C34.67,66.938,35.977,65.119,34.979,64.121z"/><path d="M59.117,41.701c1.178-1.183-0.826-2.579-1.945-1.484c0.125-0.125,0.24-0.241-0.01,0.008  c-0.251,0.252-0.132,0.134-0.006,0.008C56.297,41.117,58.132,42.687,59.117,41.701z"/><path d="M26.166,55.615c0.164,1.256,1.872,0.97,1.719-0.306c0.019,0.147,0.037,0.286,0-0.008c-0.039-0.294-0.021-0.155-0.002-0.007  C27.714,54.099,26.02,54.462,26.166,55.615z"/><path d="M43.557,64.004c-0.075-0.172-0.147-0.336,0.002,0.008c0.15,0.345,0.078,0.177,0.003,0.005  c0.442,0.989,2.869,0.406,2.486-0.771C45.497,61.55,42.846,62.342,43.557,64.004z"/><path d="M59.949,52.55c-1.289,0.402-0.676,2.155,0.642,1.75c-0.153,0.048-0.304,0.094,0.003,0c0.309-0.096,0.156-0.049,0.002-0.001  C61.834,53.908,61.14,52.182,59.949,52.55z"/></svg>
